# xmcd CD database file
#
# Track frame offsets:
#	150
#	18296
#	27891
#	38592
#	51142
#	63054
#	73506
#	88173
#	102910
#	116079
#	131665
#	142816
#	162575
#	176005
#	195652
#	207893
#	219640
#	237282
#	251780
#	263273
#
# Disc length: 3724 seconds
#
# Revision: 0
# Processed by: cddbd v1.5.2PL0 Copyright (c) Steve Scherf et al.
# Submitted via: CDex 1.51
#
DISCID=160e8a14
DTITLE=Lewis, Ramsey - Complete Recordings 1960-1962, CD3
DYEAR=1900
DGENRE=Jazz
TTITLE0=Merry Christmas Baby
TTITLE1=Winter Wonderland
TTITLE2=Santa Claus Is Coming To Town
TTITLE3=Christmas Blues
TTITLE4=Here Comes Santa Claus
TTITLE5=The Sound Of Christmas
TTITLE6=Christmas Song (Chestnuts Roasting On An Open Fire)
TTITLE7=God Rest Ye Merry Gentlemen
TTITLE8=Sleigh Ride
TTITLE9=What Are You Doing New Year's Eve
TTITLE10=Sound Of Spring
TTITLE11=Spring Can Really Hang You Up The Most
TTITLE12=Blue Spring
TTITLE13=Spring Is Here
TTITLE14=Spring Will Be A Little Late This Year
TTITLE15=Spring Fever
TTITLE16=It Might As Well Be Spring
TTITLE17=Soft Winds
TTITLE18=There'll Be Another Spring
TTITLE19=Truly, Truly Spring
EXTD=
EXTT0=
EXTT1=
EXTT2=
EXTT3=
EXTT4=
EXTT5=
EXTT6=
EXTT7=
EXTT8=
EXTT9=
EXTT10=
EXTT11=
EXTT12=
EXTT13=
EXTT14=
EXTT15=
EXTT16=
EXTT17=
EXTT18=
EXTT19=
PLAYORDER=
